<svg xmlns="http://www.w3.org/2000/svg" version="1.1" xmlns:xlink="http://www.w3.org/1999/xlink" xmlns:svgjs="http://svgjs.dev/svgjs" width="100%" height="100%" viewBox="0 0 1000 600"><rect width="1000" height="600" x="0" y="0" fill="#1a2238"/><g><circle r="166.66666666666666" cx="309.4684397379557" cy="331.69066635119793" fill="#f4db7d" transform="matrix(0.8753392402585385,0,0,0.8753392402585385,0,9.65813138583276)"/><path d="M258.5837007603222 327.40416105210153Q273.91299670394324 329.0222534017059 283.735101141893 337.82240477674765Q293.528817994762 346.6225561517893 293.528817994762 360.7027983518561L293.528817994762 360.7027983518561Q293.528817994762 371.7455689482793 287.31193686207126 382.2773630132486Q281.0666681442997 392.8091570782179 268.2922548579489 399.76411542300895Q255.517841571598 406.69068618271916 236.72526024812186 406.69068618271916L236.72526024812186 406.69068618271916Q223.43987043031697 406.69068618271916 211.7725729621165 403.34095114318717Q200.13366307899685 399.9628285185743 193.80323160598297 395.05177629959945L193.80323160598297 395.05177629959945Q192.35546476686324 399.1395885512317 190.31155864104707 400.4738050500284Q188.26765251523094 401.808021548825 185.20179332650673 401.808021548825L185.20179332650673 401.808021548825Q183.78241407246776 401.808021548825 182.64691066923655 401.3822077726133Q181.53979485108616 400.9847815814824 179.49588872527002 400.1615416141398L179.49588872527002 400.1615416141398Q183.9811271680332 392.1846302064408 186.02503329384933 383.61157951204524L186.02503329384933 383.61157951204524Q211.7725729621165 277.1297478740407 211.7725729621165 268.9541233707762L211.7725729621165 268.9541233707762Q211.7725729621165 267.70506962722186 211.062883335097 267.1940930957678Q210.35319370807753 266.68311656431376 208.50800067782686 266.68311656431376L208.50800067782686 266.68311656431376Q205.2434283935372 266.68311656431376 195.4213239555874 268.7270226901299L195.4213239555874 268.7270226901299Q186.02503329384933 270.77092881594604 183.1578872006906 270.77092881594604L183.1578872006906 270.77092881594604Q177.0261688232422 270.77092881594604 177.0261688232422 265.0650242147093L177.0261688232422 265.0650242147093Q177.0261688232422 263.0211180888932 177.33843225913077 260.7784988675116Q177.65069569501935 258.5074920610492 178.24683498171572 256.6906866158794L178.24683498171572 256.6906866158794Q180.0920280119664 258.5074920610492 182.76046100955966 258.93330583726095Q185.4005064220722 259.3307320283918 193.37741782977128 259.5294451239573L193.37741782977128 259.5294451239573L213.41905289680176 259.955258900169Q214.24229286414436 259.955258900169 215.8603852137488 260.04042165541136Q217.50686514843403 260.1539719957344 221.39596430450084 260.1539719957344L221.39596430450084 260.1539719957344Q245.09959784695187 260.7784988675116 258.7824138558877 262.396591217116Q272.49361744990426 264.04307115180126 281.6911950160769 270.06123918892655Q290.8887725822495 276.10779481113264 290.8887725822495 288.7686577571603L290.8887725822495 288.7686577571603Q290.8887725822495 301.42952070318813 281.97507086688466 311.96131476815737Q273.08975673660063 322.49310883312666 258.5837007603222 327.40416105210153L258.5837007603222 327.40416105210153ZM234.25554034609402 398.3163485838891Q248.3641701312415 398.3163485838891 258.8959641962108 393.3201336096719Q269.42775826118003 388.2955310503739 275.0485001071744 379.8360306963015Q280.6692419531688 371.3481427571484 280.6692419531688 361.1286121280678L280.6692419531688 361.1286121280678Q280.6692419531688 348.24064850139376 271.67037748256166 340.8882639654718Q262.6715130119545 333.5358794295499 246.94479087720254 333.5358794295499L246.94479087720254 333.5358794295499Q233.43230037875142 333.5358794295499 226.9031558101721 334.3591193968925L226.9031558101721 334.3591193968925Q224.6605365887905 333.93330562068087 224.46182349322504 329.4480671779176L224.46182349322504 329.4480671779176L224.46182349322504 328.0003003387979Q224.46182349322504 324.53701495894273 225.881202747264 323.31634880046926L225.881202747264 323.31634880046926Q227.300582001303 323.31634880046926 232.01292112471242 323.71377499160013Q236.72526024812186 324.13958876781186 240.38725872354243 324.13958876781186L240.38725872354243 324.13958876781186Q256.73850773007155 324.13958876781186 267.4690148906063 315.5381504883356Q278.199522051141 306.9650997939401 278.199522051141 292.4590438176617L278.199522051141 292.4590438176617Q278.199522051141 278.5491271280797 267.3838521353639 272.5309590909544Q256.53979463450605 266.48440346874827 236.72526024812186 266.48440346874827L236.72526024812186 266.48440346874827Q229.77030190333085 266.48440346874827 226.7044427146066 267.8186199675449Q223.63858352588244 269.15283646634157 221.79339049563174 273.1270983776508Q219.94819746538107 277.1297478740407 217.0810513722223 287.9454177898177L217.0810513722223 287.9454177898177Q206.6628076475762 326.9783472758898 195.84713773179914 385.2296718616497L195.84713773179914 385.2296718616497Q212.19838673832822 398.3163485838891 234.25554034609402 398.3163485838891L234.25554034609402 398.3163485838891ZM338.9205665389287 404.8738807375492Q335.85470735020454 404.8738807375492 334.5204908514079 403.8519276746412Q333.18627435261124 402.8299746117331 333.18627435261124 399.5370147423626L333.18627435261124 399.5370147423626Q333.18627435261124 389.317484113282 348.11814410510135 329.6467802734831L348.11814410510135 329.6467802734831Q352.80209564343 310.2296720782298 356.69119479949677 293.0551831043581Q360.58029395556366 275.8806941304864 360.58029395556366 271.59416878328864L360.58029395556366 271.59416878328864Q360.58029395556366 269.5502626574725 359.6435036478979 268.840573030453Q358.73510092531296 268.13088340343353 356.2937686083659 268.13088340343353L356.2937686083659 268.13088340343353Q353.8240487063381 268.13088340343353 342.3838519187839 269.35154956190706L342.3838519187839 269.35154956190706Q325.8338898166893 271.19674259215776 320.29831072593726 271.19674259215776L320.29831072593726 271.19674259215776Q315.81307228317405 271.19674259215776 313.88271649768103 270.17478952924967Q311.9239731271073 269.15283646634157 311.9239731271073 266.2856903731829L311.9239731271073 266.2856903731829Q311.9239731271073 261.8004519304196 313.5704530617925 256.88939971144475L313.5704530617925 256.88939971144475Q318.48150528076735 259.955258900169 322.1435037561879 260.66494852718847Q325.8338898166893 261.374638154208 333.18627435261124 261.374638154208L333.18627435261124 261.374638154208Q347.09619104219325 261.374638154208 370.37401080843256 258.93330583726095L370.37401080843256 258.93330583726095Q390.01821968433217 256.88939971144475 396.9447904440424 256.88939971144475L396.9447904440424 256.88939971144475Q417.80966547841547 256.88939971144475 429.8743891377468 266.2856903731829Q441.9107252119975 275.6819810349209 441.9107252119975 294.9003761346088L441.9107252119975 294.9003761346088Q441.9107252119975 307.9870528568482 436.00610751519525 319.0298234532715Q430.0731022333123 330.044206464614 417.6961151380923 336.6869013735165Q405.34751562795316 343.3295962824189 386.95236049560793 343.3295962824189L386.95236049560793 343.3295962824189Q377.13025605765813 343.3295962824189 371.8217776475524 341.39924049692587Q366.5132992374466 339.46888471143285 366.5132992374466 335.77849865093145L366.5132992374466 335.77849865093145Q366.5132992374466 333.5358794295499 368.131391587051 332.3152132710764L368.131391587051 332.3152132710764Q370.6011114890788 333.11006565333815 375.90958989918465 333.84814286543843Q381.2180683092905 334.557832492458 386.52654671939626 334.557832492458L386.52654671939626 334.557832492458Q399.4145103460702 334.557832492458 409.43532787958543 329.53322993315993Q419.42775782801994 324.53701495894273 424.84978657844886 315.65170082865876Q430.2718153288778 306.76638669837473 430.2718153288778 295.29780232573967L430.2718153288778 295.29780232573967Q430.2718153288778 280.39432015833034 420.5632612312511 273.3258114732162Q410.8547071336244 266.2856903731829 391.04017274724026 266.2856903731829L391.04017274724026 266.2856903731829Q381.019355213725 266.2856903731829 376.61927952620414 268.0173330631104Q372.2192038386833 269.74897575303794 370.9985376802098 273.63807490910483L370.9985376802098 273.63807490910483Q368.9546315543936 279.1736539998568 362.5106497410566 307.47607632539416Q356.0666679277196 335.77849865093145 350.75818951761386 363.1725182538839Q345.44971110750805 390.5665378568363 345.44971110750805 398.5150616794546L345.44971110750805 398.5150616794546Q345.44971110750805 401.5809208681788 346.27295107485065 404.0506407702066L346.27295107485065 404.0506407702066Q343.008378790561 404.8738807375492 338.9205665389287 404.8738807375492L338.9205665389287 404.8738807375492Z " fill="#ff6a3d" transform="matrix(0.8753392402585385,0,0,0.8753392402585385,0,9.65813138583276)"/><path d="M593.3801534951804 319.33232654934244Q599.7540910803942 320.0051310722261 603.8381325701794 323.6642433896637Q607.9103704718437 327.32335570710126 607.9103704718437 333.1779354150014L607.9103704718437 333.1779354150014Q607.9103704718437 337.7695311939795 605.325384673396 342.14866238678377Q602.7285952868274 346.52779357958804 597.4169806324825 349.4196726691758Q592.1053659781376 352.2997481706428 584.2913906421903 352.2997481706428L584.2913906421903 352.2997481706428Q578.7673114016717 352.2997481706428 573.9160366840367 350.9069247723924Q569.0765655545225 349.5022977860212 566.4443654035916 347.46027704112856L566.4443654035916 347.46027704112856Q565.8423824094325 349.1599937305189 564.9925240647374 349.714762372195Q564.1426657200423 350.269531013871 562.8678782029995 350.269531013871L562.8678782029995 350.269531013871Q562.2776987969612 350.269531013871 561.8055552721305 350.09247719205945Q561.3452153354206 349.92722695836875 560.4953569907254 349.5849229028666L560.4953569907254 349.5849229028666Q562.3603239138065 346.2681146409312 563.2101822585016 342.70343102845976L563.2101822585016 342.70343102845976Q573.9160366840367 298.42817198746525 573.9160366840367 295.02873860868465L573.9160366840367 295.02873860868465Q573.9160366840367 294.5093807313709 573.6209469810176 294.2969161451971Q573.3258572779985 294.08445155902325 572.5586240501486 294.08445155902325L572.5586240501486 294.08445155902325Q571.2012114162605 294.08445155902325 567.1171699264753 294.9343099037185L567.1171699264753 294.9343099037185Q563.2101822585016 295.7841682484136 562.0180198583043 295.7841682484136L562.0180198583043 295.7841682484136Q559.4684448242188 295.7841682484136 559.4684448242188 293.4116470361396L559.4684448242188 293.4116470361396Q559.4684448242188 292.56178869144446 559.5982842935472 291.62930522990393Q559.7281237628756 290.68501818024265 559.9759991134117 289.9295885405136L559.9759991134117 289.9295885405136Q560.7432323412615 290.68501818024265 561.8527696246135 290.8620720020541Q562.9505033198448 291.0273222357448 566.2673115817802 291.1099473525902L566.2673115817802 291.1099473525902L574.6006447950411 291.28700117440167Q574.9429488505434 291.28700117440167 575.6157533734271 291.32241193876393Q576.3003614844315 291.3696262912471 577.9174530569765 291.3696262912471L577.9174530569765 291.3696262912471Q587.7734491378164 291.62930522990393 593.4627786120258 292.3021097527876Q599.1639116743559 292.986717863792 602.9882742254842 295.4890785453945Q606.8126367766124 298.0032428151177 606.8126367766124 303.26764311697946L606.8126367766124 303.26764311697946Q606.8126367766124 308.5320434188412 603.1063101066918 312.91117461164555Q599.411787024892 317.29030580444993 593.3801534951804 319.33232654934244L593.3801534951804 319.33232654934244ZM583.2644784756837 348.81768967501677Q589.1308617717045 348.81768967501677 593.5099929645089 346.7402581657619Q597.8891241573131 344.6510230683862 600.2262346052248 341.13355380839783Q602.5633450531366 337.6042809602887 602.5633450531366 333.35498923681286L602.5633450531366 333.35498923681286Q602.5633450531366 327.9961602299849 598.8216076188537 324.9390309067065Q595.0798701845708 321.88190158342803 588.5406823656663 321.88190158342803L588.5406823656663 321.88190158342803Q582.9221744201814 321.88190158342803 580.2073491524052 322.2242056389302L580.2073491524052 322.2242056389302Q579.2748656908647 322.04715181711873 579.1922405740193 320.1821848940377L579.1922405740193 320.1821848940377L579.1922405740193 319.58020189987855Q579.1922405740193 318.14016414914505 579.7824199800575 317.6326098599521L579.7824199800575 317.6326098599521Q580.3725993860959 317.6326098599521 582.3319950141431 317.7978600936428Q584.2913906421903 317.97491391545435 585.8140535097691 317.97491391545435L585.8140535097691 317.97491391545435Q592.6129202673305 317.97491391545435 597.0746765769802 314.3984267148622Q601.5364328866299 310.8337431023907 601.5364328866299 304.8021095726791L601.5364328866299 304.8021095726791Q601.5364328866299 299.0183513935036 597.0392658126179 296.51599071190117Q592.5302951504852 294.00182644217796 584.2913906421903 294.00182644217796L584.2913906421903 294.00182644217796Q581.3995115526026 294.00182644217796 580.1247240355599 294.55659508385395Q578.8499365185171 295.11136372552994 578.0827032906673 296.7638660624373Q577.3154700628174 298.42817198746525 576.12330766262 302.9253390614773L576.12330766262 302.9253390614773Q571.7913908222988 319.155272727531 567.2942237482869 343.3762355513434L567.2942237482869 343.3762355513434Q574.0930905058483 348.81768967501677 583.2644784756837 348.81768967501677L583.2644784756837 348.81768967501677ZM655.077508602426 330.5457352640705Q656.6119750581256 330.8054142027274 656.6119750581256 332.24545195346076L656.6119750581256 332.24545195346076Q656.6119750581256 335.6448853322415 652.2328438653212 340.18926675873655Q647.853712672517 344.7454517733524 641.9047042596508 348.01504568280467Q635.9556958467845 351.28463959225695 631.9660830619655 351.28463959225695L631.9660830619655 351.28463959225695Q628.1417205108372 351.28463959225695 625.3324665380949 349.28983319984735Q622.5350161534732 347.29502680743786 621.0477640502567 344.8280768901977Q619.5605119470401 342.3611269729576 619.5605119470401 341.1689645727601L619.5605119470401 341.1689645727601Q620.9179245809282 336.329493443246 622.5350161534732 327.7482848794488L622.5350161534732 327.7482848794488L623.4674996150138 322.97963527865926Q623.809803670516 321.2799185892689 625.9344495322539 319.46216601867087Q628.0590953939918 317.6326098599521 630.6912955449227 316.39323310727167Q633.3234956958536 315.1656599427119 634.9405872683986 315.1656599427119L634.9405872683986 315.1656599427119Q636.2153747854413 315.1656599427119 638.0449309441601 315.9683039349241Q639.8626835147581 316.78275151525696 641.2673105011294 318.4824682046473Q642.6719374875006 320.1821848940377 642.6719374875006 322.81438504496856L642.6719374875006 322.81438504496856Q642.6719374875006 325.871514368247 640.629916742608 328.59814322414405Q638.5878959977155 331.31296849192023 634.5982832128964 333.0126851813106Q630.6086704280774 334.71240187070094 624.9901624825926 334.71240187070094L624.9901624825926 334.71240187070094L623.809803670516 340.4017313449104Q623.809803670516 341.1689645727601 624.6950727795735 342.95130637899587Q625.5921454767517 344.7454517733524 627.5869518691612 346.1854895240859Q629.5817582615707 347.6255272748194 632.6388875848492 347.6255272748194L632.6388875848492 347.6255272748194Q636.7229290746343 347.6255272748194 641.2318997367671 344.9579163595261Q645.729066810779 342.2785018561122 649.470804245062 338.27708548317236Q653.2125416793449 334.2874726983534 655.077508602426 330.5457352640705L655.077508602426 330.5457352640705ZM634.2559791573942 318.647718438338Q633.2408705790083 318.647718438338 631.6237790064633 319.49757678303314Q630.0066874339184 320.3474351277284 628.6964891525132 321.62222264477117Q627.3744872829874 322.89701016181385 627.1148083443305 324.00654744516595L627.1148083443305 324.00654744516595Q626.2649499996354 327.8309099962942 625.5921454767517 331.7378976642679L625.5921454767517 331.7378976642679Q632.1313332956563 331.47821872561104 635.4481415575916 329.1411082776993Q638.7649498195269 326.80399782978753 638.7649498195269 323.8294936233544L638.7649498195269 323.8294936233544Q638.7649498195269 321.70484776161646 637.2304833638273 320.1821848940377Q635.7078204962485 318.647718438338 634.2559791573942 318.647718438338L634.2559791573942 318.647718438338ZM656.187045885778 351.9692477032614Q652.1030043959929 351.9692477032614 649.2583396588882 350.00985207521416Q646.4136749217835 348.05045644716694 646.4136749217835 345.50088141308134L646.4136749217835 345.50088141308134Q646.4136749217835 344.14346877919326 647.1809081496333 343.29361043449813Q647.9363377893624 342.4437520898029 648.8806248390237 342.2785018561122L648.8806248390237 342.2785018561122Q649.8131083005642 345.50088141308134 651.9377541623021 347.1179729856264Q654.06240002404 348.73506455817136 657.1195293473186 348.73506455817136L657.1195293473186 348.73506455817136Q660.9438918984469 348.73506455817136 663.2337879938755 346.5632043439504Q665.535487677425 344.4031477178501 665.535487677425 341.51126862826237L665.535487677425 341.51126862826237Q665.535487677425 339.38662276652445 664.2961109247445 337.7695311939795Q663.0685377601848 336.15243962143444 660.6015878429446 334.0277937596965L660.6015878429446 334.0277937596965Q657.8867625751684 331.6552725474225 656.5647607056426 329.9083415055491Q655.2545624242375 328.1732140517964 655.2545624242375 325.7062641345563L655.2545624242375 325.7062641345563Q655.2545624242375 323.0740639836254 656.9070647611447 320.68973918323064Q658.5595670980521 318.30541438283575 661.1563564846207 316.86537663210225Q663.7531458711892 315.42533888136876 666.5505962558109 315.42533888136876L666.5505962558109 315.42533888136876Q669.0175461730511 315.42533888136876 671.0949776823059 316.4876618122377Q673.1842127796815 317.5499847431068 673.1842127796815 319.33232654934244L673.1842127796815 319.33232654934244Q673.1842127796815 321.0320432387328 671.142192034789 322.89701016181385L671.142192034789 322.89701016181385Q670.0326547514369 320.9494181218874 668.4273667670127 319.88709519101843Q666.8102751944677 318.8247722601495 665.027933388232 318.8247722601495L665.027933388232 318.8247722601495Q662.3013045323349 318.8247722601495 660.8966775459638 320.81957865255896Q659.5038541477134 322.81438504496856 659.5038541477134 324.7737806730158L659.5038541477134 324.7737806730158Q659.5038541477134 326.37906865744 660.6015878429446 327.65385617448277Q661.7111251262967 328.92864369152545 664.0836463385707 330.88803931957267L664.0836463385707 330.88803931957267Q666.9755254281584 333.35498923681286 668.5099918838581 335.3025812767393Q670.0326547514369 337.26197690478654 670.0326547514369 339.8941770557174L670.0326547514369 339.8941770557174Q670.0326547514369 342.70343102845976 668.2149021808389 345.50088141308134Q666.3853460221201 348.3101353858238 663.1983772295132 350.1396915445426Q660.0114084369063 351.9692477032614 656.187045885778 351.9692477032614L656.187045885778 351.9692477032614ZM723.8334094058898 333.43761435365826Q725.1081969229326 334.204847581508 725.1081969229326 335.98718938774374L725.1081969229326 335.98718938774374Q725.1081969229326 337.0022979661297 724.7304821030681 337.7695311939795Q724.3409636950828 338.5367644218292 723.6681591721991 339.38662276652445L723.6681591721991 339.38662276652445Q719.5014925655686 344.4031477178501 712.7852509248526 347.08256222126414Q706.0690092841365 349.7501731365573 700.2498403405987 350.56462071689015Q694.4306713970609 351.36726470910224 690.7715590796233 351.36726470910224L690.7715590796233 351.36726470910224Q688.56428810104 351.36726470910224 687.7144297563449 350.9423355367547Q686.8645714116498 350.5174063644071 686.8645714116498 349.2426188473643L686.8645714116498 349.2426188473643Q686.8645714116498 348.56981432448066 687.1242503503066 347.80258109663083L687.1242503503066 347.80258109663083Q689.4967715625805 348.2275102689784 690.4292550241211 348.2275102689784L690.4292550241211 348.2275102689784Q694.678546747597 348.2275102689784 697.4878007203394 345.0405414763715Q700.2970546930818 341.85357268376464 701.8669319131437 337.39181637411497Q703.4368091332057 332.9300600644653 705.0539007057506 326.37906865744L705.0539007057506 326.37906865744Q705.3017760562867 325.6236390177109 705.6440801117889 324.08917256201124L705.6440801117889 324.08917256201124Q705.6440801117889 322.97963527865926 703.9089526580362 321.37434729423506Q702.1620216161629 319.75725572169 700.9698592159655 319.75725572169L700.9698592159655 319.75725572169Q699.8721255207341 319.75725572169 697.4878007203394 321.1618827080612Q695.1034759199446 322.5547061063117 692.860794176999 325.2341206097256Q690.6063088459326 327.9135351131395 689.5793966794259 331.39559360876564L689.5793966794259 331.39559360876564Q687.1242503503066 340.0712308775289 685.3773193084331 347.54290215797397Q683.6303882665597 355.0263770265398 681.5057424048217 365.0476233410704L681.5057424048217 365.0476233410704Q677.0912004476552 385.7865276692568 673.6917670688745 399.0419571288774L673.6917670688745 399.0419571288774Q673.1015876628361 401.3436568124269 672.1573006131748 402.48860486014127Q671.2248171516343 403.6335529078555 669.9500296345915 404.1056964326862Q668.6752421175488 404.56603636939604 665.7833630279611 405.1680193635552L665.7833630279611 405.1680193635552Q662.1360542986442 405.84082388643884 659.1615500922111 406.6906822311341L659.1615500922111 406.6906822311341L658.2290666306706 406.2657530587864Q662.9859126433395 404.1411071970485 665.1931836219227 402.193515157122Q667.400454600506 400.2341195290748 668.5099918838581 397.3894547919702Q669.6077255790893 394.5447900548655 671.3074422684797 387.74592329730405L671.3074422684797 387.74592329730405Q682.1903505158263 344.9933271238885 690.6889339627779 309.13402641300036L690.6889339627779 309.13402641300036Q690.8541841964687 308.3667931851505 691.1964882519709 308.0717034821314Q691.5387923074732 307.77661377911227 692.0463465966661 307.5995599573007L692.0463465966661 307.5995599573007Q692.8962049413614 307.25725590179854 694.0883673415586 306.7142908482433Q695.2805297417561 306.1595222065672 695.7054589141037 306.0768970897219L695.7054589141037 306.0768970897219Q695.9533342646397 306.1595222065672 696.4726921419534 306.832326729451L696.4726921419534 306.832326729451Q696.295638320142 307.43430972361 696.0477629696059 307.77661377911227L696.0477629696059 307.77661377911227Q695.3631548586014 309.29927664669106 692.6483295908253 318.7303435551834L692.6483295908253 318.7303435551834Q691.8810963629754 321.2799185892689 691.7040425411639 321.88190158342803L691.7040425411639 321.88190158342803Q694.0057422247133 319.24970143249715 697.1927110173202 317.2076806876045Q700.3796798099271 315.1656599427119 702.2446467330082 315.1656599427119L702.2446467330082 315.1656599427119Q703.7791131887078 315.1656599427119 705.8211339336004 316.5702869290831Q707.8513510903722 317.97491391545435 709.3031924292264 319.9225059553808Q710.7432301799599 321.88190158342803 710.7432301799599 323.498993155973L710.7432301799599 323.498993155973L709.7281216015741 327.40598082394666Q708.4533340845313 332.587756008963 707.308386036817 336.06981450458915Q706.1516344009818 339.55187300021515 703.9443634223986 342.78605614530517Q701.7370924438153 346.02023929039507 698.3376590650346 347.96783133032153L698.3376590650346 347.96783133032153Q703.3541840163603 347.29502680743786 707.2611716843339 345.925810585429Q711.1681593523075 344.5683979515408 715.2522008420927 341.6411080975908Q719.3244387437571 338.70201465552003 723.8334094058898 333.43761435365826L723.8334094058898 333.43761435365826ZM766.5860055793055 320.85498941692134Q767.4358639240006 321.1146683555782 767.4358639240006 322.5547061063117L767.4358639240006 322.5547061063117Q767.4358639240006 324.6793519680496 765.7361472346103 326.93383729911596Q764.0364305452199 329.1883226301823 761.0973371031491 330.6283603809158Q758.1700472491991 332.08020171977006 754.687988753573 332.08020171977006L754.687988753573 332.08020171977006Q750.0137678577495 332.08020171977006 746.4372806571573 329.5306266856846L746.4372806571573 329.5306266856846Q745.9297263679645 331.99757660292477 745.1624931401146 334.54715163701024L745.1624931401146 334.54715163701024Q744.9146177895785 335.4796350985508 744.0647594448833 338.83185412484846Q743.2149011001881 342.1958767392668 742.8725970446859 344.8280768901977L742.8725970446859 344.8280768901977Q742.2706140505269 346.1854895240859 740.4882722442911 347.7553667441478Q738.7059304380554 349.32524396420973 736.2389805208153 350.4347812475617Q733.772030603575 351.5443185309138 731.399509391301 351.5443185309138L731.399509391301 351.5443185309138Q728.7673092403701 351.5443185309138 726.30035932313 350.17510230890485Q723.8334094058898 348.81768967501677 722.2635321858279 346.52779357958804Q720.693654965766 344.22609389603866 720.693654965766 341.42864351141696L720.693654965766 341.42864351141696Q721.8740137778426 337.8521563108248 722.6412470056924 334.71240187070094Q723.4084802335423 331.5726474305771 724.0930883445467 328.3384642854872L724.0930883445467 328.3384642854872L724.9429466892418 324.08917256201124Q725.3678758615895 322.129776933964 727.2328427846705 320.21759565839994Q729.0978097077516 318.30541438283575 731.7772242111655 317.0778412182761Q734.4566387145795 315.85026805371643 737.1714639823558 315.85026805371643L737.1714639823558 315.85026805371643Q738.1983761488624 315.85026805371643 740.0633430719436 316.18076852109783L740.0633430719436 316.18076852109783Q740.3230220106003 314.23317648117137 740.9604157691217 313.46594325332154Q741.5978095276431 312.6987100254718 743.0378472783766 312.6987100254718L743.0378472783766 312.6987100254718Q743.8877056230718 312.6987100254718 744.9972429064238 312.9583889641287L744.9972429064238 312.9583889641287Q744.5723137340763 315.3309101764027 744.5723137340763 317.03062686579307L744.5723137340763 317.03062686579307Q744.5723137340763 321.9645267002733 747.5468179405094 325.36396007905404Q750.5213221469425 328.76339345783475 755.6204722151135 328.76339345783475L755.6204722151135 328.76339345783475Q759.4448347662418 328.76339345783475 762.2068743865011 326.7213727129421Q764.9689140067604 324.6793519680496 766.5860055793055 320.85498941692134L766.5860055793055 320.85498941692134ZM739.130859610403 343.3762355513434Q739.8154677214073 339.9768021725627 741.0902552384501 335.6448853322415L741.0902552384501 335.6448853322415Q742.7899719278405 329.95555585803214 743.2975262170336 326.47349736240614L743.2975262170336 326.47349736240614Q741.4207557058317 324.08917256201124 740.747951182948 320.68973918323064L740.747951182948 320.68973918323064Q740.747951182948 320.3474351277284 740.6181117136196 320.13497054155454Q740.4882722442911 319.9225059553808 740.0633430719436 319.8398808385354L740.0633430719436 319.8398808385354Q738.7885555549008 319.33232654934244 737.1714639823558 319.33232654934244L737.1714639823558 319.33232654934244Q734.0317095422319 319.33232654934244 731.7418134468032 321.0320432387328Q729.4401137632539 322.73175992812315 728.8499343572155 325.1042811403972L728.8499343572155 325.1042811403972Q728.5902554185586 326.13119330690387 726.9731638460137 333.095310298156L726.9731638460137 333.095310298156Q726.2177342062846 337.17935178794113 725.1081969229326 341.1689645727601L725.1081969229326 341.1689645727601Q725.1081969229326 344.3205226010047 727.2328427846705 346.05565005475745Q729.3574886464085 347.80258109663083 731.7418134468032 347.80258109663083L731.7418134468032 347.80258109663083Q733.772030603575 347.80258109663083 736.1091410514867 346.3507397577766Q738.4462514993985 344.9107020070431 739.130859610403 343.3762355513434L739.130859610403 343.3762355513434ZM808.9844941090981 256.69068439243557Q815.6181106329688 256.69068439243557 820.2097064119469 260.7275115297376Q824.801302190925 264.76433866703974 824.801302190925 272.93242164661L824.801302190925 272.93242164661Q824.801302190925 273.3573508189576 824.4589981354228 273.6878512863391L824.4589981354228 273.6878512863391Q821.9094231013372 267.7388428734729 817.6955421422236 265.1892678393873Q813.4934647712308 262.6396928053018 807.62708147521 262.6396928053018L807.62708147521 262.6396928053018Q801.8551268841552 262.6396928053018 795.858904118806 267.83327157843894Q789.8626813534567 273.0150467634554 784.1733518792472 282.65857825812145Q778.484022405038 292.3021097527876 773.5501225705576 305.4749140955628L773.5501225705576 305.4749140955628Q771.0831726533174 312.02590550258816 769.2182057302364 319.7926664860524Q767.3414352190345 327.57123105763736 764.5439848344129 340.66141028356725L764.5439848344129 340.66141028356725L763.776751606563 344.14346877919326Q769.89101025312 335.82193915405304 778.9915766942308 325.19870984536334Q788.0803395472209 314.57548053667364 789.4377521811091 314.57548053667364L789.4377521811091 314.57548053667364Q792.2470061538514 314.57548053667364 793.9467228432418 316.275197226064L793.9467228432418 316.275197226064Q788.0803395472209 320.68973918323064 779.5817561002692 330.20343120856825L779.5817561002692 330.20343120856825Q781.0335974391235 335.82193915405304 782.4264208373738 339.46924788336986Q783.831047823745 343.1283602008073 786.1327475072945 345.7133459992552Q788.4226436027232 348.3101353858238 791.8220769815039 348.3101353858238L791.8220769815039 348.3101353858238Q794.0293479600872 348.3101353858238 797.5586208081962 345.25300606254535Q801.0878936563054 342.1958767392668 804.1450229795838 337.26197690478654Q807.2021523028624 332.32807707030616 808.2290644693691 326.981051651599L808.2290644693691 326.981051651599Q808.9844941090981 326.981051651599 809.5038519864119 327.96074946562265Q810.0114062756047 328.92864369152545 810.0114062756047 330.5457352640705L810.0114062756047 330.5457352640705Q810.0114062756047 333.35498923681286 806.8598482473602 338.58397877431236Q803.7200938072364 343.8011647236911 799.2583374975867 347.8379918609931Q794.796581187937 351.8748189982952 790.7125396981518 351.8748189982952L790.7125396981518 351.8748189982952Q785.5307645131354 351.8748189982952 782.4264208373738 347.5074913936117Q779.3338807497331 343.1283602008073 776.2649478383338 334.0277937596965L776.2649478383338 334.0277937596965Q768.6162227360772 342.95130637899587 763.6941264897177 350.3521561307163L763.6941264897177 350.3521561307163Q762.5845892063656 352.05187282010667 762.1596600340181 352.05187282010667L762.1596600340181 352.05187282010667Q761.4868555111344 352.05187282010667 760.3301038752993 350.9895498892377Q759.1851558275849 349.92722695836875 759.1025307107396 349.1599937305189L759.1025307107396 349.1599937305189Q759.0199055938942 347.46027704112856 760.80224740013 338.91447924169375Q762.5845892063656 330.3804850303797 765.1813785929343 320.4300602445738Q767.7663643913821 310.49143904688844 769.89101025312 304.45980551717685L769.89101025312 304.45980551717685Q778.0590932326903 281.5136302104072 787.7026247273565 269.10805909548174Q797.3461562220225 256.69068439243557 808.9844941090981 256.69068439243557L808.9844941090981 256.69068439243557ZM840.1813775122835 330.5457352640705Q841.7040403798624 330.8054142027274 841.7040403798624 332.24545195346076L841.7040403798624 332.24545195346076Q841.7040403798624 335.6448853322415 837.3367127751789 340.18926675873655Q832.9575815823745 344.7454517733524 827.0085731695083 348.01504568280467Q821.0595647566421 351.28463959225695 817.0581483837022 351.28463959225695L817.0581483837022 351.28463959225695Q813.233785832574 351.28463959225695 810.4363354479523 349.28983319984735Q807.62708147521 347.29502680743786 806.1398293719934 344.8280768901977Q804.6525772687768 342.3611269729576 804.6525772687768 341.1689645727601L804.6525772687768 341.1689645727601Q806.009989902665 336.329493443246 807.62708147521 327.7482848794488L807.62708147521 327.7482848794488L808.5595649367505 322.97963527865926Q808.9018689922527 321.2799185892689 811.0265148539906 319.46216601867087Q813.1511607157286 317.6326098599521 815.7833608666596 316.39323310727167Q818.4273646057112 315.1656599427119 820.0326525901354 315.1656599427119L820.0326525901354 315.1656599427119Q821.3074401071782 315.1656599427119 823.136996265897 315.9683039349241Q824.9665524246158 316.78275151525696 826.3711794109869 318.4824682046473Q827.7758063973581 320.1821848940377 827.7758063973581 322.81438504496856L827.7758063973581 322.81438504496856Q827.7758063973581 325.871514368247 825.7337856524656 328.59814322414405Q823.691764907573 331.31296849192023 819.7021521227539 333.0126851813106Q815.7007357498142 334.71240187070094 810.0940313924501 334.71240187070094L810.0940313924501 334.71240187070094L808.9018689922527 340.4017313449104Q808.9018689922527 341.1689645727601 809.798941689431 342.95130637899587Q810.6842107984885 344.7454517733524 812.6908207790187 346.1854895240859Q814.6856271714282 347.6255272748194 817.7427564947067 347.6255272748194L817.7427564947067 347.6255272748194Q821.8267979844919 347.6255272748194 826.3239650585039 344.9579163595261Q830.8329357206366 342.2785018561122 834.5746731549194 338.27708548317236Q838.3046070010815 334.2874726983534 840.1813775122835 330.5457352640705L840.1813775122835 330.5457352640705ZM819.3598480672517 318.647718438338Q818.332935900745 318.647718438338 816.7276479163207 319.49757678303314Q815.1105563437758 320.3474351277284 813.78855447425 321.62222264477117Q812.4783561928449 322.89701016181385 812.218677254188 324.00654744516595L812.218677254188 324.00654744516595Q811.3688189094929 327.8309099962942 810.6842107984885 331.7378976642679L810.6842107984885 331.7378976642679Q817.2352022055137 331.47821872561104 820.5520104674491 329.1411082776993Q823.8570151412637 326.80399782978753 823.8570151412637 323.8294936233544L823.8570151412637 323.8294936233544Q823.8570151412637 321.70484776161646 822.3343522736848 320.1821848940377Q820.7998858179852 318.647718438338 819.3598480672517 318.647718438338L819.3598480672517 318.647718438338ZM865.9250032036748 351.5443185309138Q864.6502156866321 351.5443185309138 864.1072506330768 351.11938935856614Q863.5524819914009 350.6944601862186 863.5524819914009 349.32524396420973L863.5524819914009 349.32524396420973Q863.5524819914009 345.0759522407338 869.7493657548031 320.26481001088297L869.7493657548031 320.26481001088297Q871.7087613828504 312.19115573627886 873.3258529553954 305.0499849232152Q874.9429445279403 297.90881411015164 874.9429445279403 296.1264723039159L874.9429445279403 296.1264723039159Q874.9429445279403 295.27661395922064 874.553426119955 294.9815242562015Q874.1757113000905 294.6864345531824 873.1487991335838 294.6864345531824L873.1487991335838 294.6864345531824Q872.1336905551979 294.6864345531824 867.376844542529 295.19398884237535L867.376844542529 295.19398884237535Q860.4953526681223 295.9612220702252 858.1936529845729 295.9612220702252L858.1936529845729 295.9612220702252Q856.3286860614918 295.9612220702252 855.5142384811589 295.5362928978775Q854.7115944889468 295.11136372552994 854.7115944889468 293.91920132533255L854.7115944889468 293.91920132533255Q854.7115944889468 292.0542344022515 855.3962025999514 290.01221365735887L855.3962025999514 290.01221365735887Q857.4264197567231 291.28700117440167 858.9608862124227 291.5820908774208Q860.4953526681223 291.87718058044004 863.5524819914009 291.87718058044004L863.5524819914009 291.87718058044004Q869.3244365824555 291.87718058044004 879.0151824296048 290.8620720020541L879.0151824296048 290.8620720020541Q887.1714618210542 290.01221365735887 890.063340910642 290.01221365735887L890.063340910642 290.01221365735887Q898.7389781794052 290.01221365735887 903.7436995426102 293.91920132533255Q908.7602244939359 297.82618899330623 908.7602244939359 305.81721815106505L908.7602244939359 305.81721815106505Q908.7602244939359 311.2586722747383 906.2932745766956 315.85026805371643Q903.8381282475763 320.4300602445738 898.6917638269222 323.1920998648331Q893.5453994062681 325.9541394850924 885.8966743040115 325.9541394850924L885.8966743040115 325.9541394850924Q881.8244364023471 325.9541394850924 879.6171654237638 325.1514954928802Q877.3980908570597 324.3488515006681 877.3980908570597 322.81438504496856L877.3980908570597 322.81438504496856Q877.3980908570597 321.88190158342803 878.0826989680642 321.37434729423506L878.0826989680642 321.37434729423506Q879.0978075464501 321.70484776161646 881.3168821131541 322.01174105275646Q883.5241530917375 322.3068307557756 885.7314240703207 322.3068307557756L885.7314240703207 322.3068307557756Q891.0902530771486 322.3068307557756 895.2451160956584 320.21759565839994Q899.4117827022889 318.14016414914505 901.6662680333553 314.4456410673452Q903.9207533644216 310.7511179855453 903.9207533644216 305.98246838475575L903.9207533644216 305.98246838475575Q903.9207533644216 299.78558462135345 899.8839262271196 296.84649117928257Q895.8470990898176 293.91920132533255 887.5963909934018 293.91920132533255L887.5963909934018 293.91920132533255Q883.4415279748921 293.91920132533255 881.6119718161733 294.63922020069936Q879.7824156574545 295.35923907606605 879.2748613682616 296.976330648611L879.2748613682616 296.976330648611Q878.4250030235664 299.2780303321605 875.7455885201524 311.04620768856455Q873.0661740167385 322.81438504496856 870.8589030381552 334.204847581508Q868.6516320595719 345.5953101180475 868.6516320595719 348.90031479186206L868.6516320595719 348.90031479186206Q868.6516320595719 350.17510230890485 868.993936115074 351.20201447541154L868.993936115074 351.20201447541154Q867.6247198930652 351.5443185309138 865.9250032036748 351.5443185309138L865.9250032036748 351.5443185309138ZM936.4632458133743 352.2997481706428Q930.266362049972 352.2997481706428 925.0845868649557 349.7973874890403Q919.8910080918184 347.29502680743786 916.7984680041778 342.10144803430074Q913.6941243284163 336.91967284928427 913.6941243284163 329.1883226301823L913.6941243284163 329.1883226301823Q913.6941243284163 319.33232654934244 918.6162205747756 310.2789744607147Q923.550120409256 301.22562237208695 932.0014895037248 295.6189180147229Q940.4646621863141 290.01221365735887 950.4859085008449 290.01221365735887L950.4859085008449 290.01221365735887Q955.927362624518 290.01221365735887 960.684208637187 291.6647159942662Q965.4528582379766 293.3290219192943 967.3178251610576 296.1264723039159L967.3178251610576 296.1264723039159Q966.4679668163624 298.3337432824992 965.830573057841 301.69776589691753Q965.1931792993197 305.0499849232152 965.1105541824743 308.0244891296484L965.1105541824743 308.0244891296484L962.9859083207364 308.3667931851505Q962.9859083207364 307.09200566810773 962.8560688514079 305.2270387450267Q962.7262293820794 303.35026823382486 962.4783540315433 301.82760536624596L962.4783540315433 301.82760536624596Q961.8763710373843 297.82618899330623 959.114331417125 295.7015431315683Q956.3522917968656 293.5768972698304 950.7455874395017 293.5768972698304L950.7455874395017 293.5768972698304Q941.6568245865116 293.5768972698304 934.3031891872741 298.8531011598129Q926.9495537880367 304.1175014616747 922.7828871814062 312.35640596996956Q918.6162205747756 320.60711406638524 918.6162205747756 329.0230723964916L918.6162205747756 329.0230723964916Q918.6162205747756 335.4796350985508 921.130384844499 339.764337586389Q923.6327455261013 344.06084366234796 927.8466264852149 346.13827517160274Q932.0487038562078 348.2275102689784 937.2304790412243 348.2275102689784L937.2304790412243 348.2275102689784Q946.1539916605236 348.2275102689784 953.8853418796255 342.40834132544063Q961.6284956868482 336.577368793782 965.6181084716671 325.7888892514016L965.6181084716671 325.7888892514016Q967.9080045670959 325.7888892514016 967.9080045670959 328.92864369152545L967.9080045670959 328.92864369152545Q967.9080045670959 333.35498923681286 963.4934626099292 338.91447924169375Q959.0789206527627 344.4857728346955 951.8079103703707 348.3927605026692Q944.5369000879786 352.2997481706428 936.4632458133743 352.2997481706428L936.4632458133743 352.2997481706428ZM982.6152753655707 351.9692477032614Q978.5312338757856 351.9692477032614 975.686569138681 350.00985207521416Q972.8419044015762 348.05045644716694 972.8419044015762 345.50088141308134L972.8419044015762 345.50088141308134Q972.8419044015762 344.14346877919326 973.6091376294261 343.29361043449813Q974.3763708572759 342.4437520898029 975.3088543188163 342.2785018561122L975.3088543188163 342.2785018561122Q976.241337780357 345.50088141308134 978.3659836420949 347.1179729856264Q980.4906295038328 348.73506455817136 983.5477588271112 348.73506455817136L983.5477588271112 348.73506455817136Q987.3721213782395 348.73506455817136 989.673821061789 346.5632043439504Q991.9637171572177 344.4031477178501 991.9637171572177 341.51126862826237L991.9637171572177 341.51126862826237Q991.9637171572177 339.38662276652445 990.736143992658 337.7695311939795Q989.4967672399774 336.15243962143444 987.0298173227374 334.0277937596965L987.0298173227374 334.0277937596965Q984.3149920549611 331.6552725474225 982.9929901854352 329.9083415055491Q981.6827919040301 328.1732140517964 981.6827919040301 325.7062641345563L981.6827919040301 325.7062641345563Q981.6827919040301 323.0740639836254 983.3352942409375 320.68973918323064Q984.9996001659655 318.30541438283575 987.5845859644133 316.86537663210225Q990.181375350982 315.42533888136876 992.9788257356036 315.42533888136876L992.9788257356036 315.42533888136876Q995.4457756528437 315.42533888136876 997.5350107502194 316.4876618122377Q999.6124422594742 317.5499847431068 999.6124422594742 319.33232654934244L999.6124422594742 319.33232654934244Q999.6124422594742 321.0320432387328 997.5704215145817 322.89701016181385L997.5704215145817 322.89701016181385Q996.4726878193504 320.9494181218874 994.8555962468055 319.88709519101843Q993.2385046742604 318.8247722601495 991.4561628680248 318.8247722601495L991.4561628680248 318.8247722601495Q988.7295340121277 318.8247722601495 987.3367106138772 320.81957865255896Q985.9320836275061 322.81438504496856 985.9320836275061 324.7737806730158L985.9320836275061 324.7737806730158Q985.9320836275061 326.37906865744 987.0298173227374 327.65385617448277Q988.1393546060893 328.92864369152545 990.5236794064841 330.88803931957267L990.5236794064841 330.88803931957267Q993.4037549079511 333.35498923681286 994.9382213636508 335.3025812767393Q996.4726878193504 337.26197690478654 996.4726878193504 339.8941770557174L996.4726878193504 339.8941770557174Q996.4726878193504 342.70343102845976 994.6431316606316 345.50088141308134Q992.8135755019129 348.3101353858238 989.626606709306 350.1396915445426Q986.4396379166991 351.9692477032614 982.6152753655707 351.9692477032614L982.6152753655707 351.9692477032614Z " fill="#ff6a3d" transform="matrix(0.8753392402585385,0,0,0.8753392402585385,0,9.65813138583276)"/></g></svg>